# xmcd CD database file
# Copyright (C) 1995 Ti Kan
#
# Track frame offsets:
#	182
#	11545
#	23590
#	36510
#	48465
#	59595
#	73277
#	85260
#	96007
#	106812
#	118520
#	129025
#	140057
#	152935
#	165607
#	176812
#	189465
#	201280
#
# Disc length: 2833 seconds
#
# Revision: 1
# Processed by: cddbd v1.4b41PL1 Copyright (c) Steve Scherf et al.
# Submitted via: xmcd 1.4
#
DISCID=fc0b0f12
DTITLE=Robert Johnson - The Best of Robert Johnson
DYEAR=1900
DGENRE=
TTITLE0=Walkin' Blues
TTITLE1=Crossroad Blues
TTITLE2=Ramblin'  On My Mind
TTITLE3=Last Fair Deal Gone Down
TTITLE4=Love In Vain
TTITLE5=Terraplane Blues
TTITLE6=Phonograph Blues
TTITLE7=Stop Breakin' Down Blues
TTITLE8=From Four Until Late
TTITLE9=If I Had Possesion Over Judgement Day
TTITLE10=Malted Milk
TTITLE11=Drunken Harted Man
TTITLE12=Kind-Hearted Woman Blues
TTITLE13=Com On In My Kitchen
TTITLE14=Stones In My Passway
TTITLE15=Travelling Riverside Blues
TTITLE16=Hellhound On My Trail
TTITLE17=Me and the Devil Blues
EXTD=
EXTT0=
EXTT1=
EXTT2=
EXTT3=
EXTT4=
EXTT5=
EXTT6=
EXTT7=
EXTT8=
EXTT9=
EXTT10=
EXTT11=
EXTT12=
EXTT13=
EXTT14=
EXTT15=
EXTT16=
EXTT17=
PLAYORDER=
